<?xml version="1.0" encoding="UTF-8"?>
<svg id="_Слой_1" data-name="Слой 1" xmlns="http://www.w3.org/2000/svg" viewBox="0 0 1452.4 1434.23">
  <defs>
    <style>
      .cls-1 {
        fill: #fff;
        stroke-width: 0px;
      }
    </style>
  </defs>
  <path class="cls-1" d="M1109.65,511.83c-10.44,10.39-20.31,20.14-30.1,29.97-94.57,94.95-189.13,189.92-283.69,284.87-109.81,110.27-219.63,220.53-329.45,330.79-44.34,44.52-88.67,89.05-133.12,133.45-3.06,3.06-6.81,5.79-10.74,7.57-84.02,37.95-168.11,75.75-252.2,113.55-2.92,1.31-5.98,2.34-10.33,4.03,12.24-25.53,23.85-49.77,35.47-74,29.14-60.77,58.26-121.55,87.5-182.28,1.5-3.12,3.61-6.15,6.07-8.59,148.11-146.66,296.32-293.22,444.43-439.88,78.58-77.81,156.95-155.83,235.48-233.69,33.27-32.99,66.7-65.81,100.05-98.71,1.85-1.82,3.68-3.66,6.27-6.24-8.5-8.54-16.36-16.44-23.96-24.07,16.34-32.1,56.82-62.59,104.36-40.69,8.53,3.93,16.93,8.72,24.21,14.58,5.99,4.81,11.34,5.69,17.77,2.67,7.19-3.39,14.52-6.62,21.29-10.73,7.45-4.52,11.91-11.33,11.95-20.51.03-7.81,2.83-12.2,11.77-13.33,18.17-2.3,25.65-11.06,29.86-28.55,1.12-4.67,6.63-10.56,11.2-11.74,17.84-4.59,29.46-13.94,32.69-32.84,1.24-7.22,6.39-11.37,14.04-12.91,20.9-4.2,31.46-26.23,23.14-46.1-3.86-9.21-7.42-18.85-8.99-28.64-5.91-36.8,13.77-62.32,50.88-67.05,30.01-3.82,54.54,8.22,75.78,27.75,6.68,6.14,10.6,6.65,16.17-.3,3.31-4.13,8.01-7.15,11.31-11.29,4.46-5.59,8.91-5.93,14.16-1.61,2.97,2.44,6.05,4.78,8.77,7.49,14.18,14.13,14.17,18.85.22,32.68-11.72,11.62-11.08,11.31-4.05,25.73,6.05,12.43,11.49,25.37,15.33,38.62,13.83,47.82-28.97,76.03-65.92,70.41-8.91-1.35-17.7-4.28-26.18-7.47-20.74-7.82-41.54,2.92-46.16,24.38-2.02,9.37-5.83,15.57-16.97,17.26-18.44,2.8-25.27,11.06-27.7,29.2-.92,6.87-3.56,11.17-11.29,12.45-13.63,2.27-28.8,14.13-28.4,30.64.17,7.37-4.12,11.45-11.76,13.12-28.46,6.2-39.67,30.52-26.58,56.78,21.6,43.3,9.89,86.68-30.83,112.96-2.06,1.33-6.82.88-8.91-.66-7.6-5.62-14.59-12.05-22.87-19.07ZM87.39,1384.31c.46.63.91,1.25,1.37,1.88,313.81-312.31,627.61-624.61,941.84-937.34-1.53-1.38-3.79-3.43-6.46-5.84-2.74,2.73-4.82,4.8-6.9,6.86-105.56,104.88-211.06,209.82-316.72,314.61-73.68,73.08-147.66,145.86-221.35,218.92-100.43,99.57-200.64,199.35-301.09,298.89-32.39,32.1-65.39,63.59-90.69,102.01Z"/>
  <path class="cls-1" d="M1419.33,1310.46c20.48,15.94,29.78,35.19,22.67,61.53-8.22,30.43-27.29,49.06-57.52,56.59-27.16,6.76-48.28-1.25-63.7-25.27-14.37-22.4-29.86-44.08-45.51-67.04,17.6-15.67,32.3-28.76,46.99-41.84,11.03-9.82,22.05-19.63,36.61-32.59,22.15,17.86,41.07,33.54,60.46,48.63ZM1382,1363c4.96-4.63,4.59-24.4-.28-27.92-7.54-5.45-24.24-7.23-30.89-2.28-6.37,4.74-4.88,20.05-8.37,38.95,19.02-3.61,32.77-2.44,39.53-8.75Z"/>
  <path class="cls-1" d="M1352.79,1255.3c-25.84-24.52-48.72-46.23-73.18-69.44-23.51,20.93-46.08,41.03-70.79,63.03,18.86,24.74,37.29,48.92,58.05,76.17,27.96-22.7,55.15-44.77,85.92-69.75Z"/>
  <polygon class="cls-1" points="1201.59 1236.82 1266.21 1179.29 893.14 749.55 831.46 810.46 1201.59 1236.82"/>
  <path class="cls-1" d="M606.81,438.41c-23.79-31.96-43.81-66.73-64.31-98.48,71.12-74.86,120.24-96.67,202.08-93.64-11.49-83.87-101.51-191.31-198.79-235.46-13.84,69.61-57.46,119.82-108.64,164.36-7.19,6.25-20.37,5.39-30.59,8.45-8.54,2.55-18.32,4.13-24.9,9.43-17.37,14-34.94,28.41-49.18,45.38-8.38,9.98-9.97,25.43-15.76,37.88-3.9,8.4-9.02,16.51-14.93,23.66-59.48,71.98-141.34,111.77-221.78,153.55-24.06,12.5-48.26,24.74-76.67,39.29,99.35,115.36,215.95,188.27,372.05,196.63,1.1-63.74,1.71-125.39,3.39-187.01.94-34.55,30.72-73.56,63.23-73.07,21.89.33,49.39,11.56,64.28,27.41l171.92,191.01c22.92-20.41,40.44-42.82,60.18-60.4-42.16-47.35-21.88-24.43-62.88-70.54-23.11-25.99-48.01-50.65-68.7-78.44ZM698.5,201.27c-31.69-35.59-59.84-67.21-88-98.83,46,16.88,70.35,51.75,88,98.83ZM285.21,606.92l-5.66-1.65c-54.24-15.79-103.2-45.94-141.72-87.26h0c65.19-27.92,76.74-38.65,147.57-71.78-2.67,64.33-6.83,73.4-.19,160.69Z"/>
</svg>