<?xml version="1.0" encoding="UTF-8"?>
<svg id="_Слой_1" data-name="Слой 1" xmlns="http://www.w3.org/2000/svg" viewBox="0 0 1000 1000">
  <defs>
    <style>
      .cls-1 {
        fill: #29235c;
      }

      .cls-1, .cls-2, .cls-3, .cls-4 {
        stroke-width: 0px;
      }

      .cls-5 {
        fill: none;
        stroke: #000;
        stroke-miterlimit: 10;
        stroke-width: 7px;
      }

      .cls-2 {
        fill: #be1622;
      }

      .cls-3 {
        fill: #1d1d1b;
      }

      .cls-4 {
        fill: #fff;
      }
    </style>
  </defs>
  <g>
    <path class="cls-1" d="M947.46,279.8v-74.23h-380.28v72.2h-25.82v138.85c28.37,8.44,52.32,22.16,71.85,41.19,24.3,23.69,36.45,51.71,36.45,84.08,0,42.92-21.02,77.63-63.04,104.13-13.18,8.31-28.27,15.32-45.26,21.03v18.73h138.68v-202.64h164.3l47.12-72.12h-211.42v-131.22h267.42Z"/>
    <path class="cls-1" d="M604.92,457.81c-24.31-23.69-55.46-39.17-93.46-46.44-38.01-7.27-89.72-10.91-155.13-10.91h-129.36v-125.24h336.37v-69.66H92.12v286.68h130.74l1.05-25.76c2.11-2.03,4.22-4.07,6.5-6.27,3.38,2.07,6.75,4.14,10.27,6.3,2.16-2.09,4.28-4.14,6.64-6.42,3.23,2.09,6.44,4.16,9.99,6.45,2.21-2.11,4.51-4.29,6.93-6.6,3.3,2.23,6.48,4.37,9.87,6.67,2.32-2.21,4.62-4.41,7-6.68,3.34,2.31,6.48,4.49,9.76,6.76,2.39-2.3,4.69-4.51,7.17-6.91,3.22,2.36,6.31,4.62,9.88,7.24,2.03-2.6,4.03-5.14,6.21-7.93,3.8,2.88,6.83,5.19,10.15,7.71,2.21-2.61,4.37-5.14,6.71-7.9,3.7,2.92,6.7,5.28,10.04,7.91,2.48-2.38,4.95-4.75,7.66-7.34,2.94,2.39,5.91,4.8,9.11,7.41,2.61-2.51,5.17-4.97,7.84-7.53,2.97,2.52,5.81,4.93,9,7.64,2.27-2.81,4.52-5.59,6.93-8.56,3.82,3.33,6.69,5.83,9.75,8.49,2.48-2.82,4.85-5.52,7.44-8.47,3.48,3.21,6.28,5.8,9.55,8.81,2.56-3.03,4.96-5.87,7.46-8.83,3.42,3.26,6.21,5.93,8.97,8.57.3-.12.57-.17.76-.32q9.76-7.28,19.69-.11c2.29-1.34,4.77-2.49,6.89-4.11,2.8-2.14,4.48-1.16,6.24,1.35,1.7,2.43,3.68,4.64,5.65,7.09,3.7-1.42,7.36-2.83,11.44-4.39,1.49,3.81,2.89,7.38,4.4,11.23,2.7-.29,5.49-.48,8.25-.93,2.6-.42,4.28.58,3.95,3.15-.96,7.4,3.82,8.82,9.3,9.71.35.06.68.27,1.49.61-.94,4.09-1.89,8.21-2.93,12.74,4.2.53,8.25,1.05,12.3,1.56-1.96,3.38-3.61,6.26-5.28,9.12-1.25,2.14-.96,3.69,1.24,5.16,2.45,1.63,4.61,3.7,7.23,5.85-2.5,3.15-4.88,6.15-7.42,9.35,2.53,2.82,5.08,5.68,7.99,8.93-2.97,2.79-5.85,5.49-8.73,8.18,1.86,3.4,3.7,6.77,5.73,10.49-3.38,1.99-6.44,3.79-9.3,5.47,1.82,4.49,3.57,8.82,5.43,13.45-4.35,1.35-7.86,2.45-11.61,3.61.24,3.83.49,7.66.76,11.97-4.08.32-7.88.61-11.91.92-.65,3.74-1.3,7.53-2.06,11.9-3.73-.57-7.33-1.29-10.96-1.57-1.1-.08-2.82.78-3.36,1.73-1.84,3.24-3.27,6.72-5.25,10.93-3.96-2.3-7.65-4.43-11.35-6.57-2.33,2.57-4.82,5.32-7.39,8.16-3.06-2.82-5.8-5.34-9.19-8.46-2.63,2.82-5.15,5.51-7.84,8.4-2.67-2.47-5.48-5.09-8.58-7.96-2.54,2.89-4.98,5.65-7.65,8.69-3.29-2.98-6.11-5.52-9.15-8.27-2.8,2.66-5.47,5.2-8.31,7.9-2.76-2.55-5.4-4.99-8.32-7.68-2.76,2.46-5.52,4.91-8.64,7.68-2.67-2.47-5.36-4.96-8.14-7.53-2.97,2.57-5.77,4.99-8.73,7.54-2.72-2.48-5.28-4.82-8.04-7.35-2.91,2.43-5.75,4.79-8.86,7.38-2.65-2.41-5.27-4.8-7.96-7.25-3.05,2.46-5.93,4.8-8.97,7.26-2.54-2.36-4.99-4.63-7.68-7.13-3.06,2.31-6.1,4.61-9.25,6.98-2.54-2.32-5-4.56-7.56-6.9-3.09,2.29-6.08,4.5-9.25,6.84-1.08-.95-2.13-1.85-3.14-2.79q-4.32-3.98-8.92-.67c-1.57,1.12-3.17,2.2-4.98,3.46-2.31-2.22-4.61-4.43-7.01-6.73-3.35,2.26-6.53,4.42-9.88,6.68-2.28-2.17-4.51-4.29-6.91-6.57-3.32,2.16-6.52,4.24-9.95,6.48-2.22-2.08-4.44-4.17-6.8-6.39-3.38,2.08-6.64,4.1-10.09,6.22-2.2-2.02-4.36-4-6.64-6.09-.57.3-1.13.57-1.67.88l1.09-26.76h-126.79v96.22h302.03c80.76,0,142.15-13.25,184.18-39.75,42.02-26.5,63.04-61.21,63.04-104.13,0-32.37-12.15-60.39-36.45-84.08Z"/>
    <path class="cls-4" d="M464.44,546.64c-.05,14.4-11.01,25.91-24.74,25.98-13.84.07-24.9-11.58-24.86-26.19.04-14.58,11.27-26.44,24.87-26.25,13.84.19,24.78,11.89,24.73,26.46Z"/>
    <g>
      <g>
        <path class="cls-2" d="M46.06,778.15c-10.58,0-18.78-1.85-24.37-5.49-5.59-3.65-8.42-8.62-8.42-14.77,0-5.8,2.02-10.94,6-15.27,3.98-4.33,9.73-7.58,17.07-9.64,7.34-2.06,24.61-4.79,51.35-8.12-.21-7.22-2.53-12.74-6.94-16.34-5.57-4.53-13.62-6.82-23.94-6.82-3.93,0-7.67.34-11.11,1.02-3.44.67-6.68,1.7-9.63,3.05-2.35,4.07-4.55,8.06-6.53,11.83l-6.97-1.27.08-5.84-.12-5.97,13.5-5.41c6.07-2.41,11.45-4.1,16.01-5.02,4.56-.92,9.49-1.38,14.65-1.38,11.32,0,20.58,1.8,27.51,5.36,6.94,3.56,11.17,8.17,12.57,13.68.98,4.13,1.61,14.51,1.85,30.86.16,15.41.66,24.04,1.48,25.64.81,1.59,2.87,2.39,6.13,2.39h9.64l.05,5.76c-9.38-.35-15.99-.56-19.7-.56-4.6,0-10.84.2-18.53.61l.07-7.74c0-2.41-.04-4.94-.12-7.51l-25.5,13.7c-2.3,1.21-4.59,2.07-6.81,2.55-2.22.49-5.34.74-9.28.74ZM87.64,730.06c-22.75,3.43-37.4,6.69-43.54,9.7-6.13,3-9.24,7.7-9.24,13.98,0,4.22,1.78,7.65,5.29,10.19,3.52,2.54,8.12,3.83,13.68,3.83,6.14,0,12.1-1.22,17.71-3.62,5.61-2.4,11.03-6.03,16.11-10.78l-.26-19.12.24-4.17Z"/>
        <path class="cls-3" d="M66.69,692.73c11.37,0,20.53,1.79,27.49,5.36,6.96,3.57,11.14,8.12,12.54,13.65.99,4.15,1.61,14.43,1.85,30.84.16,15.5.66,24.05,1.48,25.66.82,1.61,2.88,2.42,6.18,2.42h9.64v5.71c-9.39-.4-15.94-.61-19.65-.61-4.61,0-10.79.2-18.53.61l.12-7.69c0-2.48-.04-4.98-.12-7.52l-25.58,13.65c-2.31,1.21-4.57,2.06-6.8,2.55-2.22.49-5.31.73-9.27.73-10.63,0-18.74-1.83-24.34-5.48-5.6-3.66-8.4-8.56-8.4-14.72,0-5.81,2-10.89,5.99-15.24,3.99-4.35,9.68-7.56,17.05-9.63,7.37-2.07,24.48-4.78,51.34-8.12-.16-7.32-2.47-12.8-6.92-16.43-5.6-4.55-13.59-6.83-23.97-6.83-3.96,0-7.66.34-11.12,1.02-3.46.68-6.67,1.69-9.64,3.05-2.39,4.12-4.57,8.07-6.55,11.85l-6.92-1.3.12-5.8-.12-5.97,13.47-5.36c6.09-2.42,11.43-4.09,16-5.02,4.57-.92,9.45-1.38,14.64-1.38M87.7,730.01c-22.9,3.45-37.44,6.69-43.62,9.71-6.18,3.02-9.27,7.7-9.27,14.02,0,4.26,1.77,7.67,5.31,10.23,3.54,2.56,8.11,3.84,13.71,3.84,6.18,0,12.09-1.21,17.73-3.62,5.64-2.42,11.02-6.01,16.12-10.79l-.25-19.16.25-4.23M66.69,692.63c-5.17,0-10.1.47-14.66,1.39-4.56.92-9.95,2.61-16.02,5.02l-13.47,5.36-.06.03v.07s.13,5.97.13,5.97l-.12,5.79v.08s.08.02.08.02l6.92,1.3h.07s.03-.05.03-.05c1.97-3.76,4.17-7.74,6.53-11.82,2.94-1.34,6.16-2.36,9.59-3.03,3.44-.67,7.18-1.01,11.1-1.01,10.3,0,18.35,2.29,23.91,6.81,4.38,3.58,6.7,9.05,6.88,16.27-26.68,3.32-43.93,6.05-51.26,8.11-7.36,2.07-13.11,5.32-17.1,9.66-3.99,4.34-6.02,9.49-6.02,15.31,0,6.17,2.84,11.15,8.45,14.81,5.59,3.65,13.8,5.5,24.4,5.5,3.94,0,7.06-.25,9.29-.74,2.22-.49,4.52-1.35,6.82-2.56l25.43-13.58c.08,2.51.12,4.98.12,7.35l-.12,7.69v.11s.11,0,.11,0c7.69-.4,13.92-.61,18.53-.61,3.71,0,10.31.2,19.64.61h.1s0-.1,0-.1v-5.81h-9.74c-3.24,0-5.29-.8-6.09-2.36-.81-1.59-1.31-10.21-1.47-25.62-.25-16.35-.87-26.73-1.86-30.87-1.4-5.53-5.64-10.15-12.59-13.72-6.94-3.56-16.21-5.37-27.54-5.37h0ZM53.84,767.7c-5.55,0-10.15-1.29-13.66-3.82-3.5-2.53-5.27-5.94-5.27-10.15,0-6.26,3.1-10.95,9.21-13.93,6.13-3,20.76-6.25,43.46-9.68l-.24,4.11.24,19.12c-5.06,4.73-10.47,8.34-16.06,10.74-5.6,2.4-11.56,3.62-17.69,3.62h0Z"/>
      </g>
      <g>
        <path class="cls-2" d="M177.77,778.15c-10.08,0-21.56-1.12-34.11-3.33-2.27-.41-3.38-1.01-3.38-1.86l.37-1.23c.33-.86.62-2.4.86-4.59.74-5.58,1.11-9.98,1.11-13.08l-.12-4.16,7.71-.05.05,5.69c0,4.48.58,7.3,1.71,8.39,2.13,1.84,6.34,3.65,12.52,5.37,6.18,1.73,12.64,2.6,19.2,2.6,8.44,0,15.41-1.62,20.73-4.8,5.31-3.18,8.01-7.03,8.01-11.43,0-3.49-1.57-6.33-4.67-8.45-3.11-2.12-9.13-3.84-17.89-5.1-16.32-2.3-27.25-4.34-32.51-6.06-5.26-1.73-9.25-4.06-11.88-6.94-2.63-2.88-3.97-6.42-3.97-10.51,0-7.66,4.02-13.97,11.96-18.75,7.93-4.77,19.33-7.19,33.87-7.19,11.5,0,23.12,1.63,34.54,4.85-.67,3.94-1.25,10.58-1.69,19.77l-7.46.05c-.22-5.09-1-8.45-2.38-10.05-1.88-2.12-5.36-4.06-10.33-5.78-4.99-1.72-10.37-2.59-16.01-2.59-7.43,0-13.46,1.35-17.91,4.02-4.44,2.66-6.69,6.04-6.69,10.05s1.78,6.76,5.29,8.7c3.52,2.01,13.4,4.16,29.39,6.4,11.81,1.67,19.72,3.24,23.49,4.68,3.78,1.44,6.86,3.65,9.17,6.58,2.3,2.93,3.47,6.35,3.47,10.14,0,7.76-4.81,14.55-14.3,20.18-9.48,5.62-22.31,8.48-38.14,8.48Z"/>
        <path class="cls-3" d="M187.35,692.73c11.55,0,23.06,1.61,34.52,4.84-.71,3.92-1.28,10.5-1.73,19.72h-7.41c-.17-5.07-.95-8.42-2.34-10.03-1.89-2.13-5.34-4.07-10.36-5.8-5.01-1.73-10.36-2.59-16.03-2.59-7.48,0-13.46,1.34-17.94,4.03-4.48,2.68-6.72,6.05-6.72,10.09s1.77,6.78,5.31,8.75c3.54,2.02,13.34,4.16,29.41,6.41,11.86,1.67,19.69,3.23,23.47,4.67,3.79,1.44,6.84,3.63,9.14,6.57,2.31,2.94,3.46,6.31,3.46,10.11,0,7.78-4.76,14.49-14.27,20.14-9.51,5.65-22.22,8.47-38.12,8.47-10.13,0-21.5-1.11-34.1-3.33-2.22-.4-3.34-1-3.34-1.81l.37-1.21c.33-.87.62-2.4.86-4.59.74-5.61,1.11-9.97,1.11-13.09l-.12-4.16h7.66v5.64c0,4.52.58,7.32,1.73,8.42,2.14,1.85,6.32,3.65,12.54,5.38,6.22,1.74,12.62,2.6,19.21,2.6,8.48,0,15.4-1.6,20.76-4.81,5.35-3.2,8.03-7.03,8.03-11.47,0-3.52-1.57-6.35-4.7-8.49-3.13-2.14-9.1-3.84-17.91-5.11-16.39-2.31-27.22-4.33-32.5-6.06-5.27-1.73-9.23-4.04-11.86-6.93-2.64-2.89-3.95-6.38-3.95-10.48,0-7.68,3.98-13.91,11.94-18.7,7.96-4.79,19.24-7.19,33.85-7.19M187.35,692.63c-14.55,0-25.96,2.42-33.9,7.2-7.96,4.79-11.99,11.11-11.99,18.79,0,4.11,1.34,7.65,3.98,10.54,2.64,2.89,6.64,5.23,11.9,6.95,5.25,1.73,16.19,3.77,32.51,6.07,8.75,1.26,14.77,2.98,17.87,5.09,3.09,2.11,4.65,4.94,4.65,8.4,0,4.39-2.69,8.22-7.98,11.39-5.31,3.18-12.28,4.79-20.71,4.79-6.55,0-13.01-.88-19.19-2.6-6.17-1.72-10.38-3.53-12.5-5.36-1.12-1.07-1.69-3.88-1.69-8.35v-5.74h-7.86v.1s.13,4.16.13,4.16c0,3.09-.37,7.49-1.11,13.07-.25,2.18-.53,3.72-.86,4.57l-.37,1.22h0v.03c0,.87,1.12,1.5,3.42,1.91,12.56,2.21,24.04,3.33,34.12,3.33,15.84,0,28.68-2.85,38.17-8.48,9.5-5.64,14.32-12.44,14.32-20.22,0-3.81-1.17-7.23-3.48-10.17-2.31-2.94-5.4-5.16-9.19-6.6-3.78-1.44-11.68-3.01-23.5-4.68-15.98-2.24-25.86-4.39-29.37-6.4-3.49-1.93-5.26-4.85-5.26-8.66s2.24-7.35,6.67-10c4.45-2.66,10.46-4.01,17.88-4.01,5.63,0,11.01.87,15.99,2.59,4.97,1.72,8.44,3.66,10.31,5.77,1.37,1.59,2.15,4.94,2.32,9.97v.1h7.61v-.1c.45-9.19,1.03-15.82,1.73-19.71l.02-.09-.09-.02c-11.42-3.22-23.05-4.85-34.55-4.85h0Z"/>
      </g>
      <g>
        <path class="cls-2" d="M285.01,778.15c-10.08,0-21.55-1.12-34.11-3.33-2.27-.41-3.38-1.01-3.38-1.86l.37-1.23c.33-.87.62-2.41.86-4.59.74-5.57,1.11-9.97,1.11-13.08l-.12-4.16,7.71-.05.05,5.69c0,4.48.58,7.3,1.71,8.39,2.12,1.84,6.34,3.65,12.52,5.37,6.18,1.73,12.64,2.6,19.2,2.6,8.44,0,15.41-1.62,20.73-4.8,5.31-3.18,8.01-7.03,8.01-11.43,0-3.49-1.57-6.33-4.67-8.45-3.11-2.12-9.13-3.84-17.9-5.1-16.32-2.3-27.25-4.34-32.5-6.06-5.26-1.73-9.26-4.06-11.88-6.94-2.63-2.88-3.97-6.42-3.97-10.51,0-7.66,4.03-13.97,11.97-18.75,7.93-4.77,19.33-7.19,33.87-7.19,11.5,0,23.12,1.63,34.54,4.85-.67,3.95-1.25,10.58-1.69,19.77l-7.46.05c-.22-5.09-1-8.45-2.38-10.05-1.88-2.12-5.35-4.06-10.33-5.78-4.99-1.72-10.37-2.59-16.01-2.59-7.43,0-13.46,1.35-17.91,4.02-4.44,2.66-6.7,6.04-6.7,10.05s1.78,6.76,5.29,8.7c3.52,2.01,13.4,4.16,29.39,6.4,11.81,1.67,19.71,3.24,23.49,4.68,3.78,1.44,6.87,3.65,9.16,6.58,2.3,2.93,3.47,6.35,3.47,10.14,0,7.76-4.81,14.55-14.3,20.18-9.48,5.62-22.31,8.48-38.14,8.48Z"/>
        <path class="cls-3" d="M294.6,692.73c11.55,0,23.06,1.61,34.53,4.84-.71,3.92-1.29,10.5-1.73,19.72h-7.41c-.17-5.07-.95-8.42-2.34-10.03-1.89-2.13-5.34-4.07-10.36-5.8-5.01-1.73-10.35-2.59-16.03-2.59-7.48,0-13.46,1.34-17.93,4.03-4.48,2.68-6.72,6.05-6.72,10.09s1.77,6.78,5.31,8.75c3.54,2.02,13.34,4.16,29.41,6.41,11.86,1.67,19.69,3.23,23.48,4.67,3.79,1.44,6.84,3.63,9.14,6.57,2.31,2.94,3.46,6.31,3.46,10.11,0,7.78-4.76,14.49-14.27,20.14-9.51,5.65-22.22,8.47-38.12,8.47-10.13,0-21.5-1.11-34.1-3.33-2.22-.4-3.34-1-3.34-1.81l.37-1.21c.33-.87.62-2.4.86-4.59.74-5.61,1.11-9.97,1.11-13.09l-.12-4.16h7.66v5.64c0,4.52.57,7.32,1.73,8.42,2.14,1.85,6.32,3.65,12.54,5.38,6.22,1.74,12.62,2.6,19.21,2.6,8.48,0,15.4-1.6,20.76-4.81,5.35-3.2,8.03-7.03,8.03-11.47,0-3.52-1.56-6.35-4.69-8.49-3.13-2.14-9.1-3.84-17.92-5.11-16.39-2.31-27.22-4.33-32.49-6.06-5.27-1.73-9.23-4.04-11.86-6.93-2.64-2.89-3.96-6.38-3.96-10.48,0-7.68,3.98-13.91,11.94-18.7,7.96-4.79,19.24-7.19,33.84-7.19M294.6,692.63c-14.55,0-25.96,2.42-33.9,7.2-7.96,4.79-11.99,11.11-11.99,18.79,0,4.11,1.34,7.66,3.98,10.54,2.63,2.89,6.64,5.22,11.9,6.95,5.25,1.73,16.19,3.77,32.51,6.07,8.76,1.26,14.77,2.98,17.87,5.09,3.09,2.11,4.65,4.93,4.65,8.4,0,4.39-2.69,8.22-7.98,11.39-5.31,3.18-12.28,4.79-20.71,4.79-6.55,0-13.01-.88-19.19-2.6-6.17-1.72-10.38-3.53-12.5-5.36-1.12-1.07-1.69-3.88-1.69-8.35v-5.74h-7.86v.1s.12,4.16.12,4.16c0,3.11-.37,7.51-1.11,13.07-.24,2.17-.53,3.71-.86,4.57l-.37,1.22h0v.03c0,.87,1.12,1.5,3.42,1.91,12.56,2.21,24.03,3.33,34.12,3.33,15.84,0,28.68-2.85,38.17-8.48,9.5-5.64,14.32-12.44,14.32-20.22,0-3.81-1.17-7.23-3.48-10.17-2.3-2.94-5.39-5.16-9.18-6.6-3.78-1.44-11.68-3.01-23.5-4.68-15.98-2.24-25.86-4.39-29.37-6.4-3.49-1.94-5.26-4.85-5.26-8.66s2.24-7.35,6.67-10c4.44-2.66,10.46-4.01,17.88-4.01,5.63,0,11.01.87,15.99,2.59,4.97,1.72,8.44,3.66,10.31,5.77,1.37,1.59,2.15,4.94,2.32,9.97v.1h7.61v-.1c.45-9.18,1.03-15.81,1.73-19.71l.02-.09-.09-.02c-11.42-3.22-23.05-4.85-34.55-4.85h0Z"/>
      </g>
      <g>
        <path class="cls-2" d="M494.31,778.15c-10.08,0-21.55-1.12-34.11-3.33-2.27-.41-3.38-1.01-3.38-1.86l.37-1.23c.33-.87.62-2.41.86-4.59.74-5.57,1.11-9.98,1.11-13.08l-.12-4.16,7.71-.05.05,5.69c0,4.48.58,7.3,1.71,8.39,2.12,1.84,6.34,3.65,12.52,5.37s12.64,2.6,19.2,2.6c8.44,0,15.41-1.62,20.73-4.8,5.31-3.18,8-7.02,8-11.43,0-3.49-1.57-6.33-4.67-8.45-3.11-2.12-9.13-3.84-17.89-5.1-16.32-2.3-27.26-4.34-32.5-6.06-5.26-1.73-9.26-4.06-11.88-6.94-2.63-2.88-3.97-6.42-3.97-10.51,0-7.66,4.03-13.97,11.97-18.75,7.93-4.77,19.33-7.19,33.87-7.19,11.5,0,23.12,1.63,34.54,4.85-.67,3.96-1.25,10.59-1.69,19.77l-7.46.05c-.22-5.09-1-8.46-2.38-10.05-1.88-2.12-5.35-4.06-10.33-5.78-4.99-1.72-10.37-2.59-16.01-2.59-7.43,0-13.46,1.35-17.91,4.02-4.44,2.66-6.69,6.04-6.69,10.05s1.78,6.76,5.29,8.7c3.52,2.01,13.4,4.16,29.39,6.4,11.81,1.67,19.71,3.24,23.49,4.68,3.78,1.44,6.87,3.65,9.16,6.58,2.3,2.93,3.47,6.35,3.47,10.14,0,7.76-4.81,14.55-14.29,20.18-9.48,5.62-22.31,8.48-38.14,8.48Z"/>
        <path class="cls-3" d="M503.9,692.73c11.55,0,23.06,1.61,34.53,4.84-.71,3.92-1.29,10.5-1.73,19.72h-7.41c-.17-5.07-.95-8.42-2.34-10.03-1.89-2.13-5.34-4.07-10.36-5.8-5.01-1.73-10.35-2.59-16.03-2.59-7.48,0-13.46,1.34-17.93,4.03-4.48,2.68-6.72,6.05-6.72,10.09s1.77,6.78,5.31,8.75c3.54,2.02,13.34,4.16,29.41,6.41,11.86,1.67,19.69,3.23,23.48,4.67,3.79,1.44,6.84,3.63,9.14,6.57,2.31,2.94,3.46,6.31,3.46,10.11,0,7.78-4.76,14.49-14.27,20.14-9.51,5.65-22.22,8.47-38.12,8.47-10.13,0-21.5-1.11-34.1-3.33-2.22-.4-3.34-1-3.34-1.81l.37-1.21c.33-.87.62-2.4.86-4.59.74-5.61,1.11-9.97,1.11-13.09l-.12-4.16h7.66v5.64c0,4.52.57,7.32,1.73,8.42,2.14,1.85,6.32,3.65,12.54,5.38,6.22,1.74,12.62,2.6,19.21,2.6,8.48,0,15.4-1.6,20.76-4.81,5.35-3.2,8.03-7.03,8.03-11.47,0-3.52-1.56-6.35-4.69-8.49-3.13-2.14-9.1-3.84-17.92-5.11-16.39-2.31-27.22-4.33-32.49-6.06-5.27-1.73-9.23-4.04-11.86-6.93-2.64-2.89-3.96-6.38-3.96-10.48,0-7.68,3.98-13.91,11.94-18.7,7.96-4.79,19.24-7.19,33.84-7.19M503.9,692.63c-14.55,0-25.95,2.42-33.9,7.2-7.96,4.79-11.99,11.11-11.99,18.79,0,4.11,1.34,7.66,3.98,10.54,2.63,2.89,6.64,5.22,11.9,6.95,5.25,1.73,16.19,3.77,32.51,6.07,8.76,1.26,14.77,2.98,17.87,5.09,3.09,2.11,4.65,4.93,4.65,8.4,0,4.39-2.69,8.22-7.98,11.39-5.31,3.18-12.28,4.79-20.71,4.79-6.55,0-13.01-.88-19.19-2.6-6.17-1.72-10.38-3.53-12.5-5.36-1.12-1.07-1.69-3.88-1.69-8.35v-5.74h-7.86v.1s.12,4.16.12,4.16c0,3.11-.37,7.51-1.11,13.07-.24,2.17-.53,3.71-.86,4.57l-.37,1.22h0v.03c0,.87,1.12,1.5,3.42,1.91,12.56,2.21,24.03,3.33,34.12,3.33,15.84,0,28.68-2.85,38.17-8.48,9.5-5.64,14.32-12.44,14.32-20.22,0-3.81-1.17-7.23-3.48-10.17-2.3-2.94-5.39-5.16-9.18-6.6-3.78-1.44-11.68-3.01-23.5-4.68-15.98-2.24-25.86-4.39-29.37-6.4-3.49-1.94-5.26-4.85-5.26-8.66s2.24-7.35,6.67-10c4.44-2.66,10.46-4.01,17.88-4.01,5.63,0,11.01.87,15.99,2.59,4.97,1.72,8.44,3.66,10.31,5.77,1.37,1.59,2.15,4.94,2.32,9.97v.1h7.61v-.1c.45-9.18,1.03-15.81,1.73-19.71l.02-.09-.09-.02c-11.42-3.22-23.05-4.85-34.55-4.85h0Z"/>
      </g>
      <g>
        <path class="cls-2" d="M607.37,778.15c-6.1,0-11.32-.77-15.53-2.3-4.21-1.52-7.31-3.54-9.21-5.98-1.9-2.45-2.86-6.2-2.86-11.15l.5-16.7v-32.87c-6.26.05-12.87.25-19.59.66l-.05-3.77c7.09-1.94,13.69-3.95,19.68-6.01-.12-8.12-.45-17.15-1.02-26.76,9.58-2.86,16.56-5.16,20.77-6.88l3.27,1.73c-.63,4.51-1.34,15.25-2.07,31.96,9.94-.05,18.21-.14,24.54-.31l9.88-.35-1.31,8.97-5.12-.04-23.72.09h-4.32l.05,33.91c0,8.79.41,14.5,1.23,16.96.82,2.46,2.49,4.4,4.98,5.78,2.49,1.38,5.71,2.07,9.55,2.07,2.37,0,4.72-.33,6.97-.99,2.25-.66,4.51-1.66,6.72-2.98l3.64,3.01-12.04,9.96c-2.67.64-5.26,1.14-7.72,1.48-2.48.34-4.9.52-7.2.52Z"/>
        <path class="cls-3" d="M600.06,666.43l3.23,1.73c-.66,4.5-1.36,15.14-2.1,31.92,10.05,0,18.24-.09,24.59-.26l9.88-.35-1.36,8.91-5.07-.09-23.72.09h-4.32v33.96c0,8.84.41,14.5,1.23,16.98.82,2.48,2.49,4.42,5.01,5.8,2.51,1.39,5.7,2.08,9.58,2.08,2.39,0,4.72-.33,6.98-.99,2.26-.66,4.51-1.66,6.73-2.98l3.58,3.01-12.04,9.88c-2.65.63-5.21,1.12-7.7,1.47s-4.88.52-7.2.52c-6.12,0-11.3-.77-15.52-2.29-4.22-1.53-7.28-3.52-9.19-5.97-1.9-2.45-2.85-6.15-2.85-11.12l.5-16.69v-32.87c-6.34,0-12.89.2-19.65.61v-3.72c7.08-1.9,13.63-3.89,19.65-5.97-.08-8.25-.41-17.18-.99-26.81,9.6-2.82,16.51-5.1,20.74-6.83M600.07,666.32l-.04.02c-4.21,1.73-11.19,4.02-20.73,6.83l-.08.02v.08c.58,9.59.91,18.58.99,26.74-5.97,2.06-12.55,4.06-19.57,5.94l-.07.02v3.9h.11c6.7-.41,13.27-.61,19.54-.61v32.77l-.5,16.69c0,4.96.97,8.72,2.87,11.18,1.91,2.46,5.01,4.47,9.23,6,4.21,1.53,9.45,2.3,15.55,2.3,2.31,0,4.73-.18,7.21-.52,2.47-.34,5.06-.84,7.71-1.47h.02s.02-.02.02-.02l12.04-9.88.09-.08-.09-.08-3.58-3.01-.05-.05-.06.04c-2.21,1.32-4.46,2.32-6.71,2.97-2.25.66-4.59.99-6.95.99-3.84,0-7.04-.7-9.53-2.07-2.48-1.37-4.15-3.3-4.96-5.75-.82-2.46-1.23-8.16-1.23-16.95v-33.86h4.22l23.72-.09,5.06.09h.09s.01-.08.01-.08l1.36-8.91.02-.12h-.12s-9.88.35-9.88.35c-6.3.17-14.54.26-24.48.26.74-16.66,1.44-27.36,2.09-31.8v-.07s-.05-.03-.05-.03l-3.23-1.73-.04-.02h0Z"/>
      </g>
      <g>
        <path class="cls-2" d="M700.65,778.15c-16.65,0-30.28-3.74-40.49-11.12-10.22-7.39-15.4-17.54-15.4-30.18,0-9.65,2.91-18.13,8.66-25.2,3.78-4.66,10.85-9.03,21.03-12.99,10.17-3.96,20.2-5.97,29.79-5.97,14.52,0,26.19,3.03,34.69,9,8.5,5.98,12.81,14.46,12.81,25.21l-.25,5.11c-5.45.97-10.68,1.58-15.59,1.86-8.74.46-21.07.69-36.64.69h-30.84c.46,11.24,4.64,19.93,12.49,25.77,7.85,5.85,18.3,8.81,31.06,8.81,5.73,0,11.49-.67,17.14-1.99,5.64-1.32,11.32-3.33,16.89-5.96l2.14,1.3-3.94,7.33c-6.83,2.78-13.95,4.88-21.16,6.25-7.22,1.38-14.75,2.08-22.38,2.08ZM699.29,698.92c-9.17,0-16.6,2.38-22.08,7.08-5.48,4.7-8.35,12.11-8.51,22.02,12.67.35,26.89.55,42.21.55,6.14,0,12.17-.2,17.91-.61l-.05-4.79c0-5.04-1.45-9.89-4.32-14.42-1.8-2.8-4.99-5.17-9.49-7.03-4.5-1.86-9.78-2.81-15.67-2.81Z"/>
        <path class="cls-3" d="M704.23,692.73c14.58,0,26.13,3,34.66,9,8.53,6,12.79,14.39,12.79,25.17l-.25,5.1c-5.43.92-10.61,1.53-15.55,1.82-8.8.46-21.02.69-36.64.69h-30.84c.41,11.36,4.56,19.98,12.46,25.86,7.9,5.88,18.26,8.82,31.09,8.82,5.75,0,11.47-.66,17.15-1.99,5.67-1.33,11.3-3.32,16.9-5.97l2.1,1.3-3.95,7.27c-6.84,2.77-13.88,4.84-21.13,6.23-7.25,1.38-14.71,2.08-22.36,2.08-16.72,0-30.21-3.7-40.46-11.12-10.25-7.41-15.38-17.46-15.38-30.14,0-9.69,2.88-18.08,8.65-25.17,3.79-4.67,10.79-9,21.01-12.97,10.21-3.98,20.14-5.97,29.78-5.97M710.91,728.62c6.18,0,12.15-.2,17.92-.61v-4.84c0-5.07-1.44-9.89-4.32-14.44-1.81-2.82-4.99-5.17-9.52-7.05-4.53-1.87-9.76-2.81-15.69-2.81-9.23,0-16.6,2.36-22.12,7.09-5.52,4.73-8.36,12.08-8.53,22.06,12.77.4,26.85.61,42.26.61M704.23,692.63c-9.6,0-19.63,2.01-29.81,5.97-10.18,3.97-17.26,8.34-21.05,13-5.75,7.08-8.67,15.57-8.67,25.23,0,12.66,5.19,22.83,15.42,30.22,10.23,7.39,23.86,11.13,40.52,11.13,7.63,0,15.16-.7,22.38-2.08,7.22-1.38,14.33-3.48,21.15-6.23h.03s.02-.04.02-.04l3.95-7.27.05-.08-.08-.05-2.1-1.3-.05-.03-.05.02c-5.57,2.64-11.25,4.64-16.88,5.96-5.64,1.32-11.4,1.99-17.13,1.99-12.75,0-23.19-2.96-31.03-8.8-7.81-5.82-11.99-14.46-12.41-25.68h30.74c15.57,0,27.9-.23,36.65-.69,4.91-.29,10.15-.9,15.56-1.82h.08s0-.09,0-.09l.25-5.1c0-10.77-4.32-19.27-12.83-25.26-8.5-5.98-20.18-9.01-34.72-9.01h0ZM668.75,727.92c.18-9.85,3.04-17.21,8.49-21.88,5.47-4.69,12.89-7.07,22.05-7.07,5.89,0,11.15.94,15.65,2.8,4.49,1.86,7.67,4.22,9.47,7.01,2.86,4.52,4.31,9.36,4.31,14.39v4.75c-5.71.4-11.7.6-17.82.6-15.3,0-29.48-.2-42.15-.6h0Z"/>
      </g>
      <g>
        <path class="cls-2" d="M905.75,776.42c-8.73-.4-16.4-.61-22.79-.61s-12.98.2-20.08.61c1.51-11.27,2.3-26.6,2.3-45.63,0-7.68-.98-13.2-2.9-16.41-1.93-3.2-5.21-5.82-9.76-7.76-4.56-1.95-10.11-2.94-16.51-2.94-7.96,0-14.8,1.42-20.34,4.23-5.53,2.81-9,5.94-10.31,9.32-.82,2.23-1.23,8.16-1.23,17.63,0,10.5.12,20.4.37,29.41.08,2.68.66,4.38,1.72,5.06,2.05,1.31,5.47,1.98,10.17,1.98h8.82l.05,5.07c-13.91-.35-25.12-.56-33.35-.56-8.72,0-18.76.2-29.83.61l-.05-5.07,8.95-.05c6.05,0,9.63-.99,10.64-2.95,1.02-1.97,1.54-14.04,1.54-35.87,0-9.77-.17-17.56-.5-23.15-.17-1.82-.82-3.08-1.95-3.76-1.14-.68-4.42-1.03-9.74-1.03h-8.9l-.05-5.07c7.08-.62,13.46-1.41,19.01-2.38,5.56-.97,11.9-2.49,18.84-4.5.74-.23,1.45-.35,2.11-.35,1.34,0,2.02.69,2.02,2.04l-.12,3.29-.25,11.68,18.61-11.63c2.22-1.38,4.6-2.4,7.07-3.03,5.43-1.26,10.92-1.9,16.35-1.9,8.79,0,16.5,1.27,22.91,3.76,6.41,2.5,11.08,5.8,13.88,9.79,2.8,4,4.22,10.34,4.22,18.84l-.5,27.25c0,9.34.58,14.8,1.71,16.23,1.54,1.82,4.58,2.75,9.05,2.75h8.84l.05,5.12h-.05Z"/>
        <path class="cls-3" d="M801.97,692.29c1.31,0,1.97.66,1.97,1.99l-.12,3.29-.25,11.68,18.68-11.59c2.23-1.38,4.58-2.39,7.05-3.03,5.44-1.27,10.89-1.9,16.33-1.9,8.83,0,16.46,1.25,22.89,3.76,6.43,2.51,11.05,5.77,13.86,9.77,2.8,4.01,4.21,10.28,4.21,18.81l-.5,27.25c0,9.4.57,14.82,1.72,16.26,1.56,1.85,4.59,2.77,9.09,2.77h8.84v5.02c-8.79-.4-16.39-.61-22.79-.61s-12.94.2-20.08.61c1.56-11.24,2.35-26.44,2.35-45.58,0-7.73-.97-13.2-2.91-16.43-1.94-3.23-5.2-5.82-9.78-7.78-4.58-1.96-10.09-2.94-16.53-2.94-8.01,0-14.79,1.41-20.36,4.24-5.57,2.83-9.02,5.94-10.34,9.34-.83,2.25-1.24,8.13-1.24,17.64,0,10.55.12,20.36.37,29.41.08,2.71.66,4.41,1.74,5.1,2.07,1.33,5.47,1.99,10.19,1.99h8.82v5.02c-13.95-.4-25.05-.61-33.3-.61-8.75,0-18.69.2-29.84.61v-5.02h8.9c6.09,0,9.66-.99,10.69-2.98,1.03-1.99,1.55-13.95,1.55-35.89,0-9.85-.17-17.56-.5-23.15-.17-1.84-.82-3.11-1.98-3.8-1.15-.69-4.41-1.04-9.76-1.04h-8.9v-5.02c7.06-.58,13.39-1.35,18.97-2.34,5.58-.98,11.87-2.48,18.85-4.5.74-.23,1.44-.35,2.09-.35M801.97,692.19c-.66,0-1.38.12-2.12.35-6.94,2.01-13.28,3.52-18.84,4.49-5.55.98-11.93,1.76-18.96,2.33h-.09v5.22h9c5.31,0,8.57.34,9.71,1.02,1.12.67,1.77,1.92,1.93,3.72.33,5.58.49,13.37.49,23.14,0,21.82-.52,33.88-1.53,35.85-1.01,1.94-4.57,2.93-10.6,2.93h-9v5.22h.1c11.07-.41,21.11-.61,29.83-.61,8.24,0,19.44.2,33.3.61h.1s0-.1,0-.1v-5.12h-8.92c-4.68,0-8.09-.66-10.14-1.97-1.04-.67-1.61-2.36-1.69-5.02-.25-9.01-.37-18.9-.37-29.41,0-9.46.41-15.39,1.23-17.61,1.3-3.36,4.77-6.48,10.29-9.29,5.53-2.81,12.37-4.23,20.32-4.23,6.39,0,11.94.99,16.49,2.93,4.54,1.94,7.81,4.55,9.74,7.74,1.92,3.2,2.89,8.71,2.89,16.38,0,19.03-.79,34.36-2.35,45.57l-.02.12h.12c7.1-.41,13.85-.61,20.08-.61s14.06.2,22.79.61h.1s0-.1,0-.1v-5.12h-8.94c-4.45,0-7.48-.92-9.01-2.73-1.12-1.41-1.69-6.86-1.69-16.2l.5-27.24c0-8.51-1.42-14.86-4.22-18.87-2.8-4.01-7.48-7.31-13.9-9.81-6.42-2.5-14.13-3.77-22.93-3.77-5.42,0-10.93.64-16.36,1.91-2.48.64-4.86,1.66-7.08,3.04l-18.53,11.49.24-11.49.12-3.29c0-1.39-.7-2.09-2.07-2.09h0Z"/>
      </g>
      <g>
        <path class="cls-2" d="M958.39,778.15c-6.1,0-11.32-.77-15.53-2.3-4.21-1.52-7.31-3.54-9.21-5.98-1.9-2.45-2.86-6.2-2.86-11.15l.5-16.7v-32.87c-6.26.05-12.87.25-19.59.66l-.05-3.77c7.09-1.94,13.7-3.95,19.68-6.01-.12-8.12-.45-17.15-1.02-26.76,9.59-2.86,16.56-5.16,20.77-6.88l3.27,1.73c-.63,4.53-1.34,15.27-2.07,31.96,9.94-.05,18.21-.14,24.54-.31l9.88-.35-1.31,8.97-5.12-.04-23.72.09h-4.32l.05,33.91c0,8.79.42,14.5,1.23,16.96.81,2.46,2.49,4.4,4.98,5.78,2.49,1.38,5.71,2.07,9.55,2.07,2.37,0,4.71-.33,6.97-.99,2.25-.66,4.51-1.66,6.72-2.98l3.64,3.01-12.04,9.96c-2.67.64-5.26,1.14-7.72,1.48-2.48.34-4.9.52-7.2.52Z"/>
        <path class="cls-3" d="M951.08,666.43l3.23,1.73c-.66,4.5-1.36,15.14-2.1,31.92,10.05,0,18.24-.09,24.59-.26l9.88-.35-1.36,8.91-5.07-.09-23.72.09h-4.32v33.96c0,8.84.41,14.5,1.24,16.98.82,2.48,2.49,4.42,5,5.8,2.51,1.39,5.7,2.08,9.58,2.08,2.39,0,4.71-.33,6.98-.99,2.26-.66,4.51-1.66,6.73-2.98l3.58,3.01-12.04,9.88c-2.65.63-5.21,1.12-7.7,1.47s-4.88.52-7.2.52c-6.12,0-11.3-.77-15.52-2.29s-7.28-3.52-9.19-5.97c-1.9-2.45-2.85-6.15-2.85-11.12l.5-16.69v-32.87c-6.34,0-12.89.2-19.65.61v-3.72c7.08-1.9,13.63-3.89,19.65-5.97-.08-8.25-.41-17.18-.99-26.81,9.6-2.82,16.52-5.1,20.74-6.83M951.09,666.32l-.04.02c-4.21,1.72-11.18,4.02-20.73,6.83l-.08.02v.08c.58,9.59.91,18.58.99,26.74-5.96,2.06-12.55,4.06-19.57,5.94l-.07.02v3.9h.11c6.7-.41,13.27-.61,19.54-.61v32.77l-.5,16.69c0,4.96.97,8.72,2.87,11.18,1.91,2.45,5.01,4.47,9.23,6,4.21,1.53,9.45,2.3,15.55,2.3,2.31,0,4.73-.18,7.21-.52,2.47-.34,5.06-.84,7.71-1.47h.02s.02-.02.02-.02l12.04-9.88.09-.08-.09-.08-3.58-3.01-.05-.05-.06.04c-2.21,1.32-4.46,2.32-6.71,2.97-2.25.66-4.59.99-6.95.99-3.84,0-7.04-.7-9.53-2.07-2.48-1.37-4.15-3.3-4.96-5.75-.82-2.46-1.23-8.16-1.23-16.95v-33.86h4.22l23.72-.09,5.06.09h.09s.01-.08.01-.08l1.36-8.91.02-.12h-.12s-9.88.35-9.88.35c-6.3.17-14.54.26-24.48.26.74-16.64,1.44-27.34,2.09-31.8v-.07s-.05-.03-.05-.03l-3.23-1.73-.04-.02h0Z"/>
      </g>
      <g>
        <g>
          <path class="cls-2" d="M402.25,794.48c-12.59,0-26-2.35-40.99-7.17-1.11-.36-2.49-2.21-2.43-3.26l.52-9.11c.92-16.36,1.88-33.28,3.3-49.88,1.85-21.54,4.14-43.4,6.36-64.54l1.06-10.17c.3-2.89-.47-4.89-2.76-7.11-6.19-6.03-12.42-12.23-18.45-18.22-5.58-5.54-11.35-11.27-17.06-16.86-2.4-2.34-2.86-4.44-1.7-7.74,3.69-10.54,7.23-21.34,10.66-31.78.89-2.71,1.78-5.43,2.67-8.14,2.07-6.27,4.12-8.39,8.13-8.39,1.54,0,3.45.33,5.99,1.04l3.06.85c11.37,3.17,23.13,6.45,34.64,9.86,1.92.57,5.42,2.32,5.37,3.47l-.04,1.02c-.16,3.87-.36,8.7-2.66,10.7-4.51,3.93-9.9,6-15.56,6-6.2,0-12.41-2.53-17.47-7.14-.21-.19-.48-.32-.82-.49-.19-.09-.41-.2-.65-.34.42,1.12.91,2.34,1.39,3.52,1.1,2.72,2.13,5.28,1.48,7.36-.58,1.85-3.07,3.05-5.49,4.22-1.02.49-1.98.96-2.77,1.46.17.03.48.12.79.14,17.9.91,31.09,11.39,41.63,21.53,6.88,6.62,11.56,14.34,13.91,22.93.58,2.11.54,3.44-.13,4.32-.64.84-1.89,1.26-3.83,1.28-2.33.02-4.67.38-7.15.76-1.15.17-2.33.35-3.57.51l8.35,21.75,7.29,19.14.68-.23-2.15-10.14-5.29-25.52c.69-.04,1.33-.05,1.93-.05.27,0,.53,0,.79,0,.74,0,1.44.01,2.12.01.88,0,1.71,0,2.55-.04,2.23-.08,3.69-.59,4.6-1.62.93-1.05,1.27-2.69,1.06-5.01-.88-9.46-4.88-17.99-11.88-25.34-3.89-4.08-8.13-7.97-12.23-11.74-1.86-1.7-3.72-3.41-5.56-5.15,15.65.64,31.93,2.47,44.29,15.79l23.42-18.36,1.5.48c-.14,1.58-.29,3.11-.43,4.64-.32,3.3-.65,6.71-1.2,10.03-2.83,17.03-9.51,28.69-21.03,36.7-1.32.92-2.19,3.56-2.06,5.23.25,3.26.69,6.57,1.12,9.77.52,3.89,1.06,7.91,1.26,11.89.81,15.97,1.56,32.22,2.28,47.92.82,17.76,1.66,36.12,2.6,54.17.24,4.66-1.64,6.27-5.67,7.95-11.42,4.75-23.12,7.06-35.74,7.06Z"/>
          <path class="cls-3" d="M351.55,552.16c1.62,0,3.57.37,5.98,1.04,12.58,3.51,25.17,7,37.69,10.71,2.04.6,5.38,2.34,5.33,3.42-.19,4.01-.2,9.52-2.69,11.68-4.66,4.05-10.08,5.99-15.53,5.99-6.14,0-12.3-2.46-17.43-7.12-.33-.3-.8-.46-1.48-.83,1.14,3.86,3.72,7.93,2.8,10.91-.81,2.6-5.58,3.97-8.25,5.66-.05-.02-.09-.02-.1-.02-.08,0,.42.22.93.25,17.13.87,29.9,10.26,41.6,21.52,6.6,6.35,11.45,13.93,13.9,22.91.98,3.59.33,5.5-3.92,5.54-3.41.04-6.82.78-10.72,1.26,5.44,14.28,10.52,27.62,15.6,40.96.25-.07.49-.14.74-.2-2.46-11.86-4.91-23.71-7.4-35.71,1.82,0,3.36.02,4.81.02.87,0,1.71,0,2.54-.04,4.31-.15,6.15-1.98,5.71-6.69-.93-9.98-5.18-18.32-11.89-25.37-5.61-5.89-11.8-11.24-17.8-16.89,16.31.76,32.21,2.92,44.22,15.86,8.34-6.52,15.92-12.43,23.49-18.35.48.16.97.33,1.45.49-.54,4.87-.87,9.78-1.67,14.61-2.46,14.79-8.16,27.73-21.01,36.66-1.32.92-2.22,3.54-2.08,5.28.56,7.24,2.01,14.42,2.38,21.65,1.73,34.03,3.11,68.07,4.88,102.1.25,4.71-1.77,6.29-5.64,7.9-11.92,4.96-23.82,7.06-35.72,7.06-13.67,0-27.33-2.77-40.98-7.17-1.07-.34-2.46-2.16-2.4-3.21,1.13-19.67,2.13-39.36,3.82-58.99,2.14-24.93,4.82-49.82,7.42-74.71.32-3.09-.61-5.05-2.77-7.16-11.91-11.61-23.62-23.44-35.52-35.08-2.42-2.36-2.83-4.44-1.69-7.69,4.64-13.24,8.94-26.59,13.33-39.92,1.95-5.93,3.92-8.36,8.09-8.36M351.55,552.06c-4.04,0-6.1,2.13-8.18,8.42-.9,2.72-1.79,5.44-2.68,8.16-3.42,10.43-6.96,21.22-10.65,31.76-1.16,3.32-.7,5.44,1.71,7.79,5.71,5.58,11.47,11.3,17.04,16.83,6.04,6,12.28,12.2,18.48,18.24,2.27,2.22,3.04,4.2,2.74,7.07-.35,3.38-.71,6.75-1.06,10.13-2.22,21.15-4.51,43.03-6.36,64.58-1.43,16.61-2.38,33.53-3.3,49.9-.17,3.03-.34,6.06-.52,9.09-.06,1.08,1.32,2.94,2.47,3.31,15,4.83,28.41,7.17,41.01,7.17s24.33-2.31,35.76-7.07c4.06-1.69,5.95-3.32,5.7-8-.94-18.05-1.78-36.41-2.6-54.16-.72-15.71-1.47-31.96-2.28-47.93-.2-3.98-.74-8-1.26-11.89-.43-3.2-.87-6.51-1.12-9.77-.13-1.65.74-4.28,2.04-5.19,11.53-8.02,18.21-19.69,21.05-36.73.55-3.32.88-6.72,1.2-10.02.15-1.51.3-3.07.47-4.6v-.08s-.07-.03-.07-.03l-.77-.26-.68-.23-.05-.02-.04.03-23.42,18.29c-5.5-5.9-12.2-9.98-20.48-12.46-7.87-2.36-16.42-3.03-23.75-3.37h-.27s.2.17.2.17c1.85,1.74,3.74,3.47,5.57,5.15,4.1,3.76,8.34,7.65,12.22,11.73,6.99,7.34,10.98,15.86,11.86,25.31.21,2.31-.13,3.93-1.04,4.98-.9,1.02-2.35,1.53-4.57,1.61-.74.03-1.55.04-2.53.04-.68,0-1.38,0-2.12-.01-.83,0-1.72-.01-2.68-.01h-.12l.02.12,7.38,35.62-.13.03-.43.12-.83-2.18-14.69-38.58c1.19-.15,2.33-.32,3.44-.49,2.47-.38,4.81-.73,7.14-.75,1.96-.02,3.23-.45,3.87-1.3.68-.9.72-2.24.14-4.37-2.35-8.6-7.03-16.33-13.92-22.96-10.55-10.14-23.74-20.63-41.66-21.54-.24-.01-.48-.07-.65-.12.76-.47,1.68-.91,2.64-1.38,2.42-1.17,4.93-2.38,5.51-4.25.65-2.1-.39-4.67-1.49-7.4-.44-1.1-.9-2.23-1.24-3.34.16.08.3.15.43.22.34.17.61.3.81.48,5.07,4.61,11.28,7.15,17.5,7.15,5.68,0,11.07-2.08,15.6-6.01,2.32-2.02,2.52-6.85,2.68-10.73.01-.35.03-.69.04-1.02.06-1.23-3.54-2.97-5.4-3.52-11.5-3.4-23.24-6.68-34.59-9.84l-3.1-.86c-2.55-.71-4.46-1.04-6.01-1.04h0Z"/>
        </g>
        <g>
          <path class="cls-2" d="M418.32,599.93c-.16,0-.31,0-.46-.02-4.56-.45-9-1.21-14.13-2.09-2.03-.35-4.15-.71-6.39-1.07,1.94-3.27,3.89-6.42,5.81-9.54,7.48-12.12,14.55-23.57,21.85-34.98.58-.91,2.62-1.59,4.05-1.59.49,0,.9.08,1.18.23,4.31,2.39,8.77,5.29,14.46,9.41,1.28.92,2.03,2.04,2.23,3.3.22,1.39-.25,2.93-1.36,4.45l-3.54,4.85c-5.93,8.15-12.07,16.58-18.32,24.69-1,1.29-3.41,2.35-5.38,2.35h0Z"/>
          <path class="cls-3" d="M429.04,550.69c.46,0,.87.07,1.15.23,5.02,2.78,9.8,6.04,14.46,9.41,2.82,2.04,2.88,4.92.86,7.68-7.22,9.9-14.38,19.85-21.86,29.55-1.03,1.34-3.49,2.33-5.34,2.33-.16,0-.31,0-.45-.02-6.39-.63-12.72-1.9-20.52-3.16,9.6-15.52,18.5-30.07,27.69-44.44.56-.87,2.56-1.56,4.01-1.56M429.04,550.59c-1.45,0-3.5.69-4.09,1.61-7.29,11.41-14.35,22.84-21.83,34.95-1.93,3.13-3.88,6.29-5.87,9.49l-.08.13.15.02c2.24.36,4.35.72,6.4,1.07,5.14.88,9.57,1.64,14.13,2.09.15.01.3.02.46.02,1.98,0,4.41-1.06,5.42-2.37,6.26-8.11,12.39-16.54,18.32-24.68,1.18-1.62,2.36-3.24,3.54-4.87,1.12-1.53,1.59-3.08,1.36-4.49-.2-1.28-.96-2.4-2.25-3.34-3.83-2.77-8.94-6.35-14.47-9.41-.29-.16-.69-.24-1.2-.24h0Z"/>
        </g>
        <g>
          <path class="cls-2" d="M435.99,610.76c-.98,0-1.89-.18-2.51-.5-2.27-1.17-4.35-2.78-6.37-4.33-.84-.65-1.68-1.29-2.53-1.91.24-.57.43-.99.6-1.36.3-.65.51-1.12.81-1.52,6.32-8.49,12.66-16.96,19-25.44l3.29-4.39c.96-1.28,2.13-1.95,3.41-1.95,1.02,0,2.06.43,3.01,1.25,3.41,2.93,6.87,6.33,10.29,10.1,1.01,1.11,1.48,2.29,1.41,3.51-.07,1.33-.81,2.64-2.13,3.8-1.56,1.38-3.12,2.76-4.69,4.14-6.65,5.89-13.53,11.97-20.47,17.75-.63.53-1.8.85-3.11.85h0Z"/>
          <path class="cls-3" d="M451.68,569.4c1.03,0,2.05.44,2.97,1.23,3.64,3.13,7.06,6.54,10.28,10.1,2.18,2.41,1.74,5.08-.71,7.25-8.34,7.35-16.62,14.78-25.16,21.89-.67.56-1.88.83-3.08.83-.93,0-1.85-.17-2.49-.5-3.19-1.64-5.95-4.11-8.89-6.23.7-1.4.95-2.19,1.42-2.81,7.41-9.96,14.85-19.89,22.29-29.83,1-1.34,2.18-1.93,3.37-1.93M451.68,569.3c-1.29,0-2.49.68-3.45,1.97l-3.5,4.68c-6.16,8.24-12.54,16.76-18.79,25.15-.3.41-.52.88-.81,1.53-.17.37-.36.79-.61,1.3l-.04.08.07.05c.85.62,1.7,1.27,2.53,1.91,2.02,1.55,4.11,3.16,6.38,4.33.63.32,1.55.51,2.53.51,1.32,0,2.5-.32,3.14-.86,6.93-5.77,13.79-11.84,20.43-17.71,1.58-1.39,3.15-2.79,4.73-4.18,1.33-1.17,2.07-2.5,2.15-3.84.07-1.23-.41-2.43-1.43-3.55-3.42-3.77-6.88-7.17-10.29-10.11-.96-.82-2.01-1.26-3.04-1.26h0Z"/>
        </g>
        <g>
          <path class="cls-2" d="M380.99,555.6c-.09,0-.17,0-.25-.03-6.26-1.55-12.38-3.2-18.87-4.96l-5.46-1.47,11.04-23.88,15.28,4.83,11.3,3.61c-.9,1.9-1.8,3.66-2.68,5.38-2.65,5.2-5.15,10.11-7.72,14.89-.42.77-1.8,1.62-2.65,1.62h0Z"/>
          <path class="cls-3" d="M367.5,525.28c8.98,2.87,17.34,5.54,26.52,8.47-3.8,7.42-7.01,13.87-10.43,20.2-.41.75-1.76,1.6-2.6,1.6-.08,0-.16,0-.24-.03-8.02-1.98-15.98-4.19-24.33-6.43,3.85-8.27,7.41-15.93,11.08-23.81M367.45,525.16l-.04.08-4.96,10.65-6.12,13.16-.05.11.11.03c1.84.5,3.67.99,5.48,1.48,6.48,1.75,12.6,3.41,18.85,4.95.08.02.17.03.26.03.88,0,2.26-.85,2.69-1.65,2.58-4.79,5.08-9.71,7.73-14.92.87-1.71,1.77-3.47,2.69-5.29l.05-.1-.11-.04-10.3-3.29-16.22-5.18-.08-.03h0Z"/>
        </g>
        <g>
          <path class="cls-2" d="M406.01,573.71c-.74-1.43-.94-2.59-.63-3.75.64-2.43.53-4.3-.32-5.7-.87-1.42-2.53-2.39-5.07-2.94-2.78-.61-5.5-1.53-8.39-2.5-1.34-.45-2.71-.91-4.15-1.36.77-1.79,1.54-3.49,2.32-5.18,2.27-4.98,4.42-9.68,6.86-14.31.48-.91,2.53-1.65,3.9-1.65.38,0,.69.05.93.16,7.06,3,13.86,6.47,18.99,9.15.53.28,1.04,1.25,1.27,2.07.17.62.18,1.11.02,1.37-4.06,6.63-8.33,13.27-12.47,19.7l-3.22,5.01-.04-.08Z"/>
          <path class="cls-3" d="M400.52,536.37c.35,0,.67.05.92.15,6.46,2.75,12.76,5.9,18.99,9.15.83.44,1.68,2.71,1.27,3.37-5.08,8.29-10.39,16.45-15.64,24.64-.81-1.55-.9-2.68-.63-3.71,1.28-4.87-.39-7.6-5.43-8.71-4.06-.89-7.98-2.43-12.54-3.86,3.12-6.73,5.92-13.2,9.2-19.42.46-.87,2.45-1.62,3.86-1.62M400.52,536.27c-1.39,0-3.46.75-3.95,1.67-2.44,4.63-4.59,9.33-6.86,14.31-.76,1.67-1.55,3.39-2.35,5.11l-.05.1.11.03c1.44.45,2.82.92,4.15,1.36,2.89.97,5.61,1.89,8.39,2.5,2.52.55,4.17,1.51,5.04,2.92.85,1.39.95,3.24.32,5.66-.31,1.17-.11,2.34.64,3.78l.08.15.09-.15c1.06-1.66,2.13-3.31,3.19-4.97,4.13-6.42,8.39-13.05,12.45-19.67.22-.36.08-1.04-.02-1.41-.23-.83-.75-1.82-1.29-2.11-5.14-2.68-11.94-6.15-18.99-9.15-.25-.11-.57-.16-.95-.16h0Z"/>
        </g>
        <g>
          <path class="cls-2" d="M388.85,595.67c-.2,0-.39-.01-.57-.04-2.64-.44-5.27-1.23-7.81-1.99-1.04-.31-2.07-.62-3.11-.91l-.33-1.43c4.77-2.98,10.35-3.95,15.75-4.89,2.02-.35,4.11-.71,6.14-1.17-.51.91-1.06,1.77-1.61,2.62-1.33,2.08-2.71,4.22-4.34,6.1-.84.96-2.64,1.71-4.11,1.71h0Z"/>
          <path class="cls-3" d="M398.92,585.29c-1.96,2.91-3.71,6.01-6,8.63-.85.97-2.66,1.7-4.07,1.7-.2,0-.39-.01-.56-.04-3.7-.61-7.28-1.89-10.92-2.9-.1-.46-.2-.93-.3-1.39,6.5-4.01,14.34-4.3,21.85-6M399.15,585.14l-.25.06c-2.03.46-4.12.82-6.14,1.17-5.4.94-10.98,1.91-15.74,4.84l-.06.04v.07s.31,1.39.31,1.39v.06s.07.02.07.02c1.04.29,2.09.6,3.1.91,2.54.76,5.17,1.55,7.82,1.99.18.03.38.04.58.04,1.48,0,3.3-.76,4.15-1.73,1.63-1.88,3.01-4.02,4.34-6.1.54-.84,1.09-1.71,1.66-2.54l.14-.21h0Z"/>
        </g>
      </g>
    </g>
  </g>
  <rect class="cls-5" x="1.79" width="1000" height="1000"/>
</svg>